<svg width="15" height="15" xmlns="http://www.w3.org/2000/svg" xml:space="preserve" enable-background="new 0 0 122.875 122.648" version="1.1">

 <g>
  <title>Layer 1</title>
  <g transform="rotate(42.1083 61.4375 61.324)" id="svg_1">
   <path id="svg_2" d="m108.993,47.079c7.683,-0.059 13.898,6.12 13.882,13.805c-0.018,7.683 -6.26,13.959 -13.942,14.019l-33.693,0.235l-0.235,33.73c-0.063,7.619 -6.338,13.789 -14.014,13.78c-7.678,-0.01 -13.848,-6.197 -13.785,-13.818l0.233,-33.497l-33.558,0.235c-7.681,0.06 -13.897,-6.12 -13.881,-13.804c0.018,-7.683 6.261,-13.959 13.943,-14.018l33.692,-0.236l0.236,-33.73c0.064,-7.619 6.338,-13.789 14.014,-13.78c7.678,0.009 13.848,6.197 13.784,13.818l-0.233,33.497l33.557,-0.236l0,0z" clip-rule="evenodd" fill-rule="evenodd"/>
  </g>
 </g>
</svg>